<svg xmlns="http://www.w3.org/2000/svg" viewBox="0 0 600 280" fill="none">
  <defs>
    <linearGradient id="sky" x1="0" y1="0" x2="0" y2="1">
      <stop offset="0%" stop-color="#eef2ff"/>
      <stop offset="100%" stop-color="#e0e7ff"/>
    </linearGradient>
  </defs>
  <rect width="600" height="280" fill="url(#sky)"/>
  <rect x="0" y="240" width="600" height="40" fill="#c7d2fe" opacity="0.35"/>

  <!-- Sabarmati Ashram / Kankaria Lake area - iconic Ahmedabad -->
  <!-- Swaminarayan Akshardham temple style (centre) -->
  <!-- Base platform -->
  <rect x="185" y="218" width="230" height="22" fill="none" stroke="#4f46e5" stroke-width="2"/>
  <rect x="198" y="204" width="204" height="16" fill="none" stroke="#4f46e5" stroke-width="1.8"/>
  <!-- Main shikhara (tower) -->
  <!-- Central tall shikhara -->
  <polygon points="300,80 272,200 328,200" fill="none" stroke="#4f46e5" stroke-width="2.5"/>
  <!-- Horizontal rings on shikhara -->
  <line x1="274" y1="192" x2="326" y2="192" stroke="#4f46e5" stroke-width="1"/>
  <line x1="276" y1="183" x2="324" y2="183" stroke="#4f46e5" stroke-width="1"/>
  <line x1="278" y1="173" x2="322" y2="173" stroke="#4f46e5" stroke-width="1"/>
  <line x1="280" y1="162" x2="320" y2="162" stroke="#4f46e5" stroke-width="1"/>
  <line x1="283" y1="150" x2="317" y2="150" stroke="#4f46e5" stroke-width="1"/>
  <line x1="286" y1="137" x2="314" y2="137" stroke="#4f46e5" stroke-width="1"/>
  <line x1="290" y1="122" x2="310" y2="122" stroke="#4f46e5" stroke-width="1"/>
  <line x1="294" y1="107" x2="306" y2="107" stroke="#4f46e5" stroke-width="1"/>
  <!-- Finial on top -->
  <ellipse cx="300" cy="78" rx="6" ry="4" fill="none" stroke="#4f46e5" stroke-width="1.5"/>
  <line x1="300" y1="74" x2="300" y2="62" stroke="#4f46e5" stroke-width="1.8"/>
  <polygon points="296,62 300,54 304,62" fill="#4f46e5"/>

  <!-- Side shikharas (smaller) -->
  <polygon points="258,96 240,200 276,200" fill="none" stroke="#4f46e5" stroke-width="1.8"/>
  <line x1="241" y1="192" x2="275" y2="192" stroke="#4f46e5" stroke-width="0.8"/>
  <line x1="243" y1="180" x2="273" y2="180" stroke="#4f46e5" stroke-width="0.8"/>
  <line x1="245" y1="167" x2="271" y2="167" stroke="#4f46e5" stroke-width="0.8"/>
  <line x1="247" y1="152" x2="269" y2="152" stroke="#4f46e5" stroke-width="0.8"/>
  <line x1="250" y1="135" x2="266" y2="135" stroke="#4f46e5" stroke-width="0.8"/>
  <ellipse cx="258" cy="94" rx="5" ry="3" fill="none" stroke="#4f46e5" stroke-width="1.2"/>
  <line x1="258" y1="91" x2="258" y2="80" stroke="#4f46e5" stroke-width="1.5"/>
  <polygon points="255,80 258,74 261,80" fill="#4f46e5"/>

  <polygon points="342,96 324,200 360,200" fill="none" stroke="#4f46e5" stroke-width="1.8"/>
  <line x1="325" y1="192" x2="359" y2="192" stroke="#4f46e5" stroke-width="0.8"/>
  <line x1="327" y1="180" x2="357" y2="180" stroke="#4f46e5" stroke-width="0.8"/>
  <line x1="329" y1="167" x2="355" y2="167" stroke="#4f46e5" stroke-width="0.8"/>
  <line x1="331" y1="152" x2="353" y2="152" stroke="#4f46e5" stroke-width="0.8"/>
  <line x1="334" y1="135" x2="350" y2="135" stroke="#4f46e5" stroke-width="0.8"/>
  <ellipse cx="342" cy="94" rx="5" ry="3" fill="none" stroke="#4f46e5" stroke-width="1.2"/>
  <line x1="342" y1="91" x2="342" y2="80" stroke="#4f46e5" stroke-width="1.5"/>
  <polygon points="339,80 342,74 345,80" fill="#4f46e5"/>

  <!-- Outer mini shikharas -->
  <polygon points="216,116 202,200 230,200" fill="none" stroke="#4f46e5" stroke-width="1.5"/>
  <line x1="203" y1="193" x2="229" y2="193" stroke="#4f46e5" stroke-width="0.8"/>
  <line x1="205" y1="178" x2="227" y2="178" stroke="#4f46e5" stroke-width="0.8"/>
  <line x1="207" y1="162" x2="225" y2="162" stroke="#4f46e5" stroke-width="0.8"/>
  <ellipse cx="216" cy="114" rx="4" ry="3" fill="none" stroke="#4f46e5" stroke-width="1.2"/>
  <line x1="216" y1="111" x2="216" y2="102" stroke="#4f46e5" stroke-width="1.2"/>
  <polygon points="213,102 216,96 219,102" fill="#4f46e5"/>

  <polygon points="384,116 370,200 398,200" fill="none" stroke="#4f46e5" stroke-width="1.5"/>
  <line x1="371" y1="193" x2="397" y2="193" stroke="#4f46e5" stroke-width="0.8"/>
  <line x1="373" y1="178" x2="395" y2="178" stroke="#4f46e5" stroke-width="0.8"/>
  <line x1="375" y1="162" x2="393" y2="162" stroke="#4f46e5" stroke-width="0.8"/>
  <ellipse cx="384" cy="114" rx="4" ry="3" fill="none" stroke="#4f46e5" stroke-width="1.2"/>
  <line x1="384" y1="111" x2="384" y2="102" stroke="#4f46e5" stroke-width="1.2"/>
  <polygon points="381,102 384,96 387,102" fill="#4f46e5"/>

  <!-- Left buildings -->
  <rect x="45" y="148" width="42" height="92" fill="none" stroke="#4f46e5" stroke-width="1.5"/>
  <line x1="66" y1="148" x2="66" y2="240" stroke="#4f46e5" stroke-width="1"/>
  <line x1="45" y1="172" x2="87" y2="172" stroke="#4f46e5" stroke-width="1"/>
  <line x1="45" y1="196" x2="87" y2="196" stroke="#4f46e5" stroke-width="1"/>
  <line x1="45" y1="220" x2="87" y2="220" stroke="#4f46e5" stroke-width="1"/>
  <rect x="50" y="156" width="8" height="9" fill="#a5b4fc" opacity="0.7"/>
  <rect x="70" y="156" width="8" height="9" fill="#a5b4fc" opacity="0.7"/>
  <rect x="50" y="180" width="8" height="9" fill="#c7d2fe" opacity="0.9"/>
  <rect x="70" y="180" width="8" height="9" fill="#c7d2fe" opacity="0.9"/>
  <polygon points="45,148 66,128 87,148" fill="none" stroke="#4f46e5" stroke-width="1.5"/>

  <rect x="108" y="162" width="38" height="78" fill="none" stroke="#4f46e5" stroke-width="1.5"/>
  <line x1="127" y1="162" x2="127" y2="240" stroke="#4f46e5" stroke-width="1"/>
  <line x1="108" y1="186" x2="146" y2="186" stroke="#4f46e5" stroke-width="1"/>
  <line x1="108" y1="210" x2="146" y2="210" stroke="#4f46e5" stroke-width="1"/>
  <rect x="113" y="170" width="8" height="9" fill="#a5b4fc" opacity="0.7"/>
  <rect x="131" y="170" width="8" height="9" fill="#c7d2fe" opacity="0.9"/>

  <!-- Right buildings -->
  <rect x="430" y="155" width="42" height="85" fill="none" stroke="#4f46e5" stroke-width="1.5"/>
  <line x1="451" y1="155" x2="451" y2="240" stroke="#4f46e5" stroke-width="1"/>
  <line x1="430" y1="178" x2="472" y2="178" stroke="#4f46e5" stroke-width="1"/>
  <line x1="430" y1="202" x2="472" y2="202" stroke="#4f46e5" stroke-width="1"/>
  <line x1="430" y1="224" x2="472" y2="224" stroke="#4f46e5" stroke-width="1"/>
  <rect x="435" y="163" width="8" height="9" fill="#a5b4fc" opacity="0.7"/>
  <rect x="455" y="163" width="8" height="9" fill="#c7d2fe" opacity="0.9"/>

  <rect x="490" y="138" width="48" height="102" fill="none" stroke="#4f46e5" stroke-width="1.5"/>
  <line x1="514" y1="138" x2="514" y2="240" stroke="#4f46e5" stroke-width="1.2"/>
  <line x1="490" y1="163" x2="538" y2="163" stroke="#4f46e5" stroke-width="1"/>
  <line x1="490" y1="188" x2="538" y2="188" stroke="#4f46e5" stroke-width="1"/>
  <line x1="490" y1="213" x2="538" y2="213" stroke="#4f46e5" stroke-width="1"/>
  <rect x="495" y="146" width="9" height="10" fill="#a5b4fc" opacity="0.7"/>
  <rect x="518" y="146" width="9" height="10" fill="#c7d2fe" opacity="0.9"/>
  <rect x="495" y="170" width="9" height="10" fill="#c7d2fe" opacity="0.9"/>
  <rect x="518" y="170" width="9" height="10" fill="#a5b4fc" opacity="0.7"/>
  <line x1="514" y1="138" x2="514" y2="110" stroke="#4f46e5" stroke-width="2"/>
  <line x1="507" y1="116" x2="521" y2="116" stroke="#4f46e5" stroke-width="1.5"/>

  <line x1="0" y1="240" x2="600" y2="240" stroke="#4f46e5" stroke-width="2"/>
  <line x1="0" y1="248" x2="600" y2="248" stroke="#818cf8" stroke-width="1" stroke-dasharray="20,15"/>
  <ellipse cx="80" cy="38" rx="28" ry="11" fill="white" opacity="0.65"/>
  <ellipse cx="106" cy="34" rx="18" ry="9" fill="white" opacity="0.65"/>
  <ellipse cx="490" cy="46" rx="26" ry="10" fill="white" opacity="0.6"/>
  <text x="300" y="268" font-family="system-ui,sans-serif" font-size="11" font-weight="700" fill="#4f46e5" text-anchor="middle" letter-spacing="2">AHMEDABAD · GUJARAT</text>
</svg>
